# xmcd
#
# Track frame offsets:
#	150
#	19752
#	41342
#	64027
#	85980
#	108255
#	125402
#	148120
#	169827
#
# Disc length: 2664 seconds
#
# Revision: 1
# Processed by: cddbd v1.5.2PL0 Copyright (c) Steve Scherf et al.
# Submitted via: audiograbber 1.83.01
#
DISCID=730a6609
DTITLE=Staub - tape
DYEAR=1998
DGENRE=Country
TTITLE0=would you come with me
TTITLE1=half
TTITLE2=tell me lies
TTITLE3=nobody's lonesome for me
TTITLE4=your cheatin' heart
TTITLE5=remember me
TTITLE6=lonesome man
TTITLE7=crazy heart
TTITLE8=money
EXTD=
EXTT0=
EXTT1=
EXTT2=
EXTT3=
EXTT4=
EXTT5=
EXTT6=
EXTT7=
EXTT8=
PLAYORDER=
